<svg width="98" height="98" viewBox="0 0 98 98" fill="none" xmlns="http://www.w3.org/2000/svg">
<path d="M89 47C89 64.9779 74.624 79.598 56.7407 79.9919C69.5576 76.5786 79 64.892 79 51C79 34.4315 65.5685 21 49 21C40.7845 21 33.3403 24.3023 27.9225 29.652C33.7391 20.2578 44.1388 14 56 14C74.2254 14 89 28.7746 89 47Z" fill="#17C9D9"/>
<path d="M65 56C65 64.6417 60.0174 72.1197 52.7683 75.7179C64.7875 73.9008 74 63.5262 74 51C74 37.1929 62.8071 26 49 26C38.0442 26 28.7345 33.0473 25.3565 42.8559C29.3676 37.4806 35.7773 34 43 34C55.1503 34 65 43.8497 65 56Z" fill="#17C9D9"/>
<path d="M43 73C52.3888 73 60 65.3888 60 56C60 46.6112 52.3888 39 43 39C36.1834 39 30.3038 43.012 27.5939 48.8036C29.9348 47.0433 32.8455 46 36 46C43.732 46 50 52.268 50 60C50 65.8218 46.4464 70.8136 41.3901 72.9248C41.92 72.9745 42.457 73 43 73Z" fill="#17C9D9"/>
<path fill-rule="evenodd" clip-rule="evenodd" d="M98 49C98 76.062 76.0619 98 49 98C21.938 98 0 76.062 0 49C0 21.938 21.938 0 49 0C76.0619 0 98 21.938 98 49ZM25.2584 69.3418C32.1672 78.8317 43.3633 85 56 85C76.9868 85 94 67.9868 94 47C94 26.0132 76.9868 9 56 9C35.0132 9 18 26.0132 18 47C18 52.3883 19.1215 57.5147 21.1438 62.1584C22.1834 64.7514 23.5746 67.1655 25.2584 69.3418Z" fill="#17C9D9"/>
<path d="M56.7406 79.9918C74.6239 79.598 88.9999 64.9779 88.9999 47C88.9999 28.7746 74.2253 14 55.9999 14C44.1387 14 33.7391 20.2578 27.9224 29.652C33.3403 24.3023 40.7845 21 48.9999 21C65.5685 21 78.9999 34.4315 78.9999 51C78.9999 64.892 69.5575 76.5786 56.7406 79.9918Z" fill="#3B8EE6"/>
<path d="M64.9999 56C64.9999 64.6417 60.0173 72.1197 52.7683 75.7178C64.7875 73.9007 73.9999 63.5262 73.9999 51C73.9999 37.1929 62.8071 26 48.9999 26C38.0442 26 28.7344 33.0473 25.3564 42.8559C29.3675 37.4806 35.7773 34 42.9999 34C55.1502 34 64.9999 43.8497 64.9999 56Z" fill="#3B8EE6"/>
<path d="M42.9999 73C52.3888 73 59.9999 65.3888 59.9999 56C59.9999 46.6112 52.3888 39 42.9999 39C36.1833 39 30.3037 43.0121 27.5938 48.8037C29.9347 47.0433 32.8455 46 36 46C43.732 46 50 52.268 50 60C50 65.8218 46.4464 70.8136 41.39 72.9248C41.92 72.9745 42.457 73 42.9999 73Z" fill="#3B8EE6"/>
<path d="M73.9999 51C73.9999 63.5262 64.7875 73.9008 52.7683 75.7179C60.0173 72.1197 64.9999 64.6417 64.9999 56C64.9999 43.8497 55.1502 34 42.9999 34C35.7773 34 29.3675 37.4806 25.3564 42.8559C28.7344 33.0473 38.0442 26 48.9999 26C62.8071 26 73.9999 37.1929 73.9999 51Z" fill="#496DE8"/>
<path d="M42.9999 73C52.3888 73 59.9999 65.3888 59.9999 56C59.9999 46.6112 52.3888 39 42.9999 39C36.1833 39 30.3037 43.0121 27.5938 48.8037C29.9347 47.0433 32.8455 46 36 46C43.732 46 50 52.268 50 60C50 65.8218 46.4464 70.8136 41.39 72.9248C41.92 72.9745 42.457 73 42.9999 73Z" fill="#496DE8"/>
<path d="M43 73C52.3889 73 60 65.3888 60 56C60 46.6112 52.3889 39 43 39C36.1834 39 30.3038 43.012 27.5939 48.8036C29.9348 47.0433 32.8456 46 36 46C43.732 46 50 52.268 50 60C50 65.8218 46.4465 70.8136 41.3901 72.9248C41.92 72.9745 42.4571 73 43 73Z" fill="#913ED2"/>
</svg>
